<?xml version="1.0" standalone="no"?>
<!DOCTYPE svg PUBLIC "-//W3C//DTD SVG 20010904//EN"
 "http://www.w3.org/TR/2001/REC-SVG-20010904/DTD/svg10.dtd">
<svg version="1.0" xmlns="http://www.w3.org/2000/svg"
 width="1920.000000pt" height="1920.000000pt" viewBox="0 0 1920.000000 1920.000000"
 preserveAspectRatio="xMidYMid meet">
<metadata>
Created by potrace 1.14, written by Peter Selinger 2001-2017
</metadata>
<g transform="translate(0.000000,1920.000000) scale(0.100000,-0.100000)"
fill="#000000" stroke="none">
<path d="M12477 18614 c-1 -2 -45 -6 -97 -9 -86 -6 -100 -9 -147 -41 -28 -19
-54 -34 -56 -34 -3 0 -29 -16 -58 -36 -57 -38 -68 -53 -144 -182 -41 -71 -49
-93 -51 -145 -2 -34 -6 -93 -8 -131 -4 -67 -2 -74 51 -192 l55 -122 84 -66
c46 -36 93 -72 104 -78 20 -13 20 -25 20 -588 l0 -575 -196 -190 c-108 -105
-239 -232 -292 -284 -139 -133 -548 -530 -657 -636 -89 -87 -459 -446 -668
-648 -176 -171 -555 -538 -657 -637 -98 -95 -555 -539 -680 -660 -37 -36 -172
-166 -300 -290 -239 -231 -279 -271 -281 -280 -1 -3 -2 -1761 -3 -3907 l-1
-3902 -69 -73 c-38 -40 -139 -147 -225 -237 -86 -90 -176 -184 -200 -210 -24
-25 -84 -88 -132 -139 l-89 -92 0 462 c0 255 -2 2333 -3 4618 l-3 4155 -100
101 c-54 56 -205 211 -334 344 -129 134 -264 273 -300 310 -36 37 -168 173
-295 303 l-230 237 -290 0 -290 0 -111 108 c-61 59 -150 144 -199 190 l-88 83
2 67 c1 37 4 101 7 142 l4 75 -62 120 c-35 67 -67 128 -73 136 -5 8 -62 49
-126 91 l-116 76 -117 7 c-64 3 -126 8 -138 10 -13 3 -76 -21 -158 -61 l-135
-66 -79 -116 -79 -116 -12 -121 c-13 -129 -12 -183 4 -212 6 -10 31 -62 56
-116 44 -97 64 -127 83 -127 6 0 12 -3 14 -8 2 -4 43 -35 91 -70 64 -45 103
-65 138 -72 28 -5 53 -9 57 -8 14 3 158 -15 177 -22 11 -5 54 -41 96 -82 82
-78 342 -325 449 -427 l65 -61 270 0 271 0 231 -237 c127 -131 270 -278 318
-328 47 -49 149 -155 226 -233 l139 -144 0 -399 c0 -219 -3 -399 -8 -399 -4 0
-15 8 -23 18 -14 15 -85 83 -468 448 -63 60 -138 132 -167 159 l-52 51 -1318
-1 -1318 0 -44 28 -43 27 6 78 c16 221 20 191 -41 335 l-56 132 -111 91 -112
91 -137 30 -137 30 -132 -34 c-72 -18 -139 -39 -149 -46 -9 -7 -54 -46 -99
-87 -45 -41 -86 -77 -92 -80 -9 -6 -110 -255 -111 -275 -1 -10 11 -134 17
-170 1 -11 3 -39 4 -61 1 -34 16 -64 83 -166 73 -112 87 -128 137 -155 31 -17
90 -49 131 -71 l75 -41 136 -2 135 -1 45 -41 c24 -22 85 -77 134 -123 50 -45
100 -91 113 -102 21 -19 40 -20 305 -21 155 -1 300 -1 322 -1 279 5 765 3 765
-2 0 -4 7 -5 15 -2 8 3 299 7 645 8 l631 1 502 -497 502 -497 0 -3963 c0
-3234 2 -3966 13 -3978 11 -13 53 -71 126 -175 8 -11 57 -79 108 -150 51 -72
102 -143 112 -160 11 -16 23 -34 28 -40 5 -5 43 -57 84 -115 40 -58 80 -114
88 -125 59 -82 333 -467 352 -495 13 -19 64 -91 113 -160 50 -69 96 -133 103
-144 7 -10 19 -24 25 -32 7 -7 13 -15 13 -19 0 -3 5 -11 10 -18 6 -7 33 -43
60 -82 27 -38 56 -79 64 -90 8 -11 80 -112 160 -225 80 -113 151 -213 158
-222 21 -29 275 -385 357 -503 51 -72 121 -171 129 -180 4 -5 56 -79 115 -162
60 -84 112 -155 115 -157 7 -4 34 35 210 294 47 69 93 134 103 146 11 11 19
25 19 31 0 6 3 13 8 15 4 2 25 30 48 63 22 33 89 132 149 220 60 88 113 161
117 163 4 2 8 10 8 17 0 7 3 15 8 17 4 1 50 66 102 143 142 211 154 228 168
243 6 7 12 17 12 21 0 4 8 16 18 27 9 11 22 28 27 37 29 49 310 453 317 455 4
2 8 8 8 13 0 8 58 98 71 109 3 3 27 39 55 80 27 41 54 81 61 87 6 7 21 29 34
50 13 21 25 40 28 43 13 11 71 101 71 109 0 5 4 11 8 13 5 2 28 32 52 68 24
36 47 66 52 68 4 2 8 8 8 12 0 7 95 148 245 364 11 16 25 37 31 48 6 11 21 30
33 44 11 13 21 26 21 29 0 3 38 59 83 125 l84 120 0 2168 c0 2119 0 2169 19
2189 22 22 160 176 219 242 65 74 48 70 301 71 l231 0 58 -51 c32 -28 64 -56
71 -62 7 -7 21 -18 31 -26 10 -8 28 -23 40 -34 12 -11 32 -21 45 -23 54 -9
224 -43 239 -49 8 -3 80 15 160 41 159 52 136 36 287 208 48 54 62 77 68 115
4 25 8 51 9 56 2 6 11 49 21 97 l18 87 -45 137 -44 136 -99 92 c-121 111 -118
110 -186 124 -30 7 -92 21 -138 32 l-83 19 -82 -26 c-45 -14 -108 -32 -140
-41 -54 -15 -66 -25 -161 -127 l-103 -110 -343 1 -343 0 -46 -50 c-25 -27 -66
-71 -91 -97 -25 -26 -85 -91 -135 -145 -82 -88 -200 -215 -265 -284 -14 -15
-43 -46 -65 -71 l-40 -44 0 -1912 c0 -1052 -1 -1913 -3 -1913 -2 0 -16 12 -31
28 -15 15 -61 57 -102 94 -41 37 -102 93 -135 125 -34 32 -112 105 -175 163
-62 58 -145 135 -183 172 -39 37 -74 68 -78 68 -5 0 -8 813 -8 1808 l1 1807
170 175 c94 96 311 319 483 494 171 175 365 374 431 442 66 67 256 261 421
431 290 296 455 465 643 659 l89 90 603 0 603 -1 51 52 c45 46 113 118 277
295 56 60 54 60 245 105 22 5 34 15 135 109 51 46 58 59 93 160 36 107 37 110
25 179 -22 134 -30 157 -73 210 -23 28 -54 68 -70 87 -20 27 -51 45 -130 78
-56 23 -106 43 -112 43 -21 0 -159 -14 -193 -19 -22 -4 -73 -32 -129 -70 -91
-64 -93 -66 -142 -164 l-51 -99 3 -113 3 -112 -31 -35 c-16 -19 -60 -67 -97
-105 l-66 -71 -594 1 -593 1 -1282 -1285 c-706 -707 -1283 -1288 -1284 -1291
-1 -3 -2 -871 -2 -1929 l-2 -1922 -166 -163 c-92 -89 -176 -170 -188 -181 -20
-18 -21 -18 -113 57 -51 41 -106 86 -122 99 -88 71 -153 125 -171 142 -11 10
-29 24 -40 32 -21 14 -21 15 -18 1026 6 1838 11 2940 15 2943 2 2 242 245 533
540 292 295 667 676 835 845 168 170 582 589 922 932 339 343 731 739 871 882
l256 258 0 507 c0 278 0 532 0 563 1 54 4 60 50 110 115 126 112 121 142 246
l28 117 -21 75 c-11 41 -22 81 -24 88 -2 7 -4 16 -5 20 -5 33 -38 79 -108 149
-86 85 -102 93 -241 128 -3 0 -22 7 -42 14 -27 9 -47 9 -75 2 -21 -6 -65 -16
-98 -23 -33 -6 -63 -13 -67 -14 -5 -1 -12 -2 -17 -3 -10 -1 -114 -86 -168
-137 -20 -19 -42 -57 -58 -100 -14 -38 -31 -80 -38 -93 -20 -40 -14 -187 13
-288 7 -26 86 -143 110 -163 3 -3 14 -16 23 -30 15 -22 17 -69 17 -480 l0
-456 -710 -715 c-391 -392 -1028 -1034 -1417 -1426 -389 -392 -709 -710 -711
-709 -2 2 -3 304 -3 671 l1 668 28 27 c15 14 86 88 157 164 72 76 150 159 175
185 432 457 466 492 481 487 16 -5 89 -14 191 -22 62 -6 75 -3 190 41 131 50
127 48 247 183 29 34 55 63 58 66 3 2 20 64 39 138 37 140 37 146 6 263 -6 22
-14 54 -17 72 -9 57 -22 77 -108 178 -89 106 -85 103 -260 174 -71 29 -85 32
-155 27 -184 -14 -194 -16 -262 -58 -142 -88 -177 -113 -187 -132 -5 -12 -35
-64 -66 -116 l-56 -95 -6 -110 c-10 -172 -3 -157 -130 -285 -62 -63 -161 -164
-219 -224 l-106 -110 0 329 0 328 149 146 c82 80 304 298 493 483 189 185 415
407 503 493 88 87 278 273 421 414 396 388 1010 991 1180 1158 84 81 316 309
517 506 l365 358 0 711 0 710 81 84 c44 46 87 94 94 106 8 13 29 76 47 141
l33 117 -22 113 c-27 132 -36 159 -65 189 -12 13 -48 55 -78 93 -54 67 -61 72
-170 119 -69 30 -130 49 -156 50 -23 1 -44 1 -45 0z m-1625 -15352 c-140 -202
-274 -393 -296 -425 -21 -32 -43 -60 -48 -63 -15 -10 -1889 -7 -1898 2 -4 5
-129 194 -278 419 -149 226 -275 415 -280 421 -9 10 11 36 203 260 28 31 64
73 80 93 17 19 37 42 45 51 8 9 33 38 55 64 22 27 51 61 65 76 14 15 43 48 65
75 54 63 62 73 121 141 28 32 69 80 90 106 37 44 58 57 66 40 2 -4 66 -61 143
-127 77 -66 145 -124 151 -130 6 -5 32 -28 59 -50 26 -22 53 -45 59 -50 6 -6
74 -64 151 -130 77 -66 143 -124 146 -128 4 -5 152 135 330 311 l324 321 451
-455 452 -455 -256 -367z m-722 -1088 c0 -8 -560 -789 -568 -791 -4 -2 -18 14
-32 35 -14 20 -27 39 -30 42 -3 3 -41 56 -85 118 -120 169 -203 286 -213 297
-4 6 -30 42 -57 80 -27 39 -69 99 -95 135 -26 36 -50 71 -54 78 -6 9 110 12
563 12 314 0 571 -3 571 -6z"/>
</g>
</svg>
